# xmcd
#
# Track frame offsets:
#	182
#	15127
#	28287
#	42880
#	57817
#	77420
#	93330
#	106042
#	119780
#	137222
#
# Disc length: 2068 seconds
#
# Revision: 8
# Processed by: cddbd v1.5.2PL0 Copyright (c) Steve Scherf et al.
# Submitted via: EZCDAudioConverter 6.0.2.1
#
DISCID=7508120a
DTITLE=John Anderson - Seminole Wind
DYEAR=1992
DGENRE=Country
TTITLE0=Who Got Our Love
TTITLE1=Straight Tequila Night
TTITLE2=Last Night I Laid Your Memory To Rest
TTITLE3=Let Go Of The Stone
TTITLE4=Look Away
TTITLE5=Steamy Windows
TTITLE6=Hillbilly Hollywood
TTITLE7=Cold Day In Hell
TTITLE8=When It Comes To You 
TTITLE9=Seminole Wind
EXTD=
EXTT0=
EXTT1=
EXTT2=
EXTT3=
EXTT4=
EXTT5=
EXTT6=
EXTT7=
EXTT8=
EXTT9=
PLAYORDER=
